<svg width="1474" height="101" viewBox="0 0 1474 101" fill="none" xmlns="http://www.w3.org/2000/svg">
<mask id="path-1-outside-1_62_131" maskUnits="userSpaceOnUse" x="9.1947" y="16" width="1432" height="76" fill="black">
<rect fill="white" x="9.1947" y="16" width="1432" height="76"/>
<path d="M38.1947 36H47.1947V45H56.1947V54H65.1947V72H74.1947V81H56.1947V72H47.1947V54H29.1947V81H11.1947V18H29.1947V45H38.1947V36ZM74.1947 18V27H65.1947V36H47.1947V27H56.1947V18H74.1947ZM100.475 81V72H91.4747V27H100.475V18H145.475V27H154.475V72H145.475V81H100.475ZM109.475 72H136.475V27H109.475V72ZM171.755 81V63H180.755V54H189.755V18H234.755V81H216.755V27H198.755V72H189.755V81H171.755ZM252.035 81V18H315.035V27H270.035V45H306.035V54H270.035V72H315.035V81H252.035ZM350.315 81V72H341.315V63H332.315V36H341.315V27H350.315V18H386.315V27H395.315V36H377.315V27H359.315V36H350.315V63H359.315V72H377.315V63H395.315V72H386.315V81H350.315ZM421.595 81V72H412.595V27H421.595V18H466.595V27H475.595V72H466.595V81H421.595ZM430.595 72H457.595V27H430.595V72ZM573.155 81V18H591.155V27H600.155V36H609.155V27H618.155V18H636.155V81H618.155V45H609.155V63H600.155V45H591.155V81H573.155ZM653.435 81V18H716.435V27H671.435V45H707.435V54H671.435V72H716.435V81H653.435ZM733.715 81V18H751.715V45H778.715V18H796.715V81H778.715V54H751.715V81H733.715ZM813.995 81V18H876.995V27H831.995V45H867.995V54H831.995V72H876.995V81H813.995ZM894.275 90V72H903.275V54H912.275V18H957.275V72H966.275V90H948.275V81H912.275V90H894.275ZM921.275 72H939.275V27H921.275V72ZM992.555 18V45H983.555V36H974.555V18H992.555ZM1010.55 45H1019.55V54H1010.55V81H1001.55V54H992.555V45H1001.55V18H1010.55V45ZM1037.55 18V36H1028.55V45H1019.55V18H1037.55ZM983.555 54H992.555V81H974.555V63H983.555V54ZM1019.55 81V54H1028.55V63H1037.55V81H1019.55ZM1054.83 81V18H1072.83V27H1081.83V36H1090.83V27H1099.83V18H1117.83V81H1099.83V45H1090.83V63H1081.83V45H1072.83V81H1054.83ZM1135.11 81V18H1198.11V27H1153.11V45H1189.11V54H1153.11V72H1198.11V81H1135.11ZM1215.39 81V18H1233.39V45H1260.39V18H1278.39V81H1260.39V54H1233.39V81H1215.39ZM1322.67 81V27H1304.67V18H1358.67V27H1340.67V81H1322.67ZM1375.95 81V36H1384.95V27H1393.95V18H1420.95V27H1429.95V36H1438.95V81H1420.95V63H1393.95V81H1375.95ZM1393.95 54H1420.95V36H1411.95V27H1402.95V36H1393.95V54Z"/>
</mask>
<path d="M38.1947 36V34H36.1947V36H38.1947ZM47.1947 36H49.1947V34H47.1947V36ZM47.1947 45H45.1947V47H47.1947V45ZM56.1947 45H58.1947V43H56.1947V45ZM56.1947 54H54.1947V56H56.1947V54ZM65.1947 54H67.1947V52H65.1947V54ZM65.1947 72H63.1947V74H65.1947V72ZM74.1947 72H76.1947V70H74.1947V72ZM74.1947 81V83H76.1947V81H74.1947ZM56.1947 81H54.1947V83H56.1947V81ZM56.1947 72H58.1947V70H56.1947V72ZM47.1947 72H45.1947V74H47.1947V72ZM47.1947 54H49.1947V52H47.1947V54ZM29.1947 54V52H27.1947V54H29.1947ZM29.1947 81V83H31.1947V81H29.1947ZM11.1947 81H9.1947V83H11.1947V81ZM11.1947 18V16H9.1947V18H11.1947ZM29.1947 18H31.1947V16H29.1947V18ZM29.1947 45H27.1947V47H29.1947V45ZM38.1947 45V47H40.1947V45H38.1947ZM74.1947 18H76.1947V16H74.1947V18ZM74.1947 27V29H76.1947V27H74.1947ZM65.1947 27V25H63.1947V27H65.1947ZM65.1947 36V38H67.1947V36H65.1947ZM47.1947 36H45.1947V38H47.1947V36ZM47.1947 27V25H45.1947V27H47.1947ZM56.1947 27V29H58.1947V27H56.1947ZM56.1947 18V16H54.1947V18H56.1947ZM38.1947 38H47.1947V34H38.1947V38ZM45.1947 36V45H49.1947V36H45.1947ZM47.1947 47H56.1947V43H47.1947V47ZM54.1947 45V54H58.1947V45H54.1947ZM56.1947 56H65.1947V52H56.1947V56ZM63.1947 54V72H67.1947V54H63.1947ZM65.1947 74H74.1947V70H65.1947V74ZM72.1947 72V81H76.1947V72H72.1947ZM74.1947 79H56.1947V83H74.1947V79ZM58.1947 81V72H54.1947V81H58.1947ZM56.1947 70H47.1947V74H56.1947V70ZM49.1947 72V54H45.1947V72H49.1947ZM47.1947 52H29.1947V56H47.1947V52ZM27.1947 54V81H31.1947V54H27.1947ZM29.1947 79H11.1947V83H29.1947V79ZM13.1947 81V18H9.1947V81H13.1947ZM11.1947 20H29.1947V16H11.1947V20ZM27.1947 18V45H31.1947V18H27.1947ZM29.1947 47H38.1947V43H29.1947V47ZM40.1947 45V36H36.1947V45H40.1947ZM72.1947 18V27H76.1947V18H72.1947ZM74.1947 25H65.1947V29H74.1947V25ZM63.1947 27V36H67.1947V27H63.1947ZM65.1947 34H47.1947V38H65.1947V34ZM49.1947 36V27H45.1947V36H49.1947ZM47.1947 29H56.1947V25H47.1947V29ZM58.1947 27V18H54.1947V27H58.1947ZM56.1947 20H74.1947V16H56.1947V20ZM100.475 81H98.4747V83H100.475V81ZM100.475 72H102.475V70H100.475V72ZM91.4747 72H89.4747V74H91.4747V72ZM91.4747 27V25H89.4747V27H91.4747ZM100.475 27V29H102.475V27H100.475ZM100.475 18V16H98.4747V18H100.475ZM145.475 18H147.475V16H145.475V18ZM145.475 27H143.475V29H145.475V27ZM154.475 27H156.475V25H154.475V27ZM154.475 72V74H156.475V72H154.475ZM145.475 72V70H143.475V72H145.475ZM145.475 81V83H147.475V81H145.475ZM109.475 72H107.475V74H109.475V72ZM136.475 72V74H138.475V72H136.475ZM136.475 27H138.475V25H136.475V27ZM109.475 27V25H107.475V27H109.475ZM102.475 81V72H98.4747V81H102.475ZM100.475 70H91.4747V74H100.475V70ZM93.4747 72V27H89.4747V72H93.4747ZM91.4747 29H100.475V25H91.4747V29ZM102.475 27V18H98.4747V27H102.475ZM100.475 20H145.475V16H100.475V20ZM143.475 18V27H147.475V18H143.475ZM145.475 29H154.475V25H145.475V29ZM152.475 27V72H156.475V27H152.475ZM154.475 70H145.475V74H154.475V70ZM143.475 72V81H147.475V72H143.475ZM145.475 79H100.475V83H145.475V79ZM109.475 74H136.475V70H109.475V74ZM138.475 72V27H134.475V72H138.475ZM136.475 25H109.475V29H136.475V25ZM107.475 27V72H111.475V27H107.475ZM171.755 81H169.755V83H171.755V81ZM171.755 63V61H169.755V63H171.755ZM180.755 63V65H182.755V63H180.755ZM180.755 54V52H178.755V54H180.755ZM189.755 54V56H191.755V54H189.755ZM189.755 18V16H187.755V18H189.755ZM234.755 18H236.755V16H234.755V18ZM234.755 81V83H236.755V81H234.755ZM216.755 81H214.755V83H216.755V81ZM216.755 27H218.755V25H216.755V27ZM198.755 27V25H196.755V27H198.755ZM198.755 72V74H200.755V72H198.755ZM189.755 72V70H187.755V72H189.755ZM189.755 81V83H191.755V81H189.755ZM173.755 81V63H169.755V81H173.755ZM171.755 65H180.755V61H171.755V65ZM182.755 63V54H178.755V63H182.755ZM180.755 56H189.755V52H180.755V56ZM191.755 54V18H187.755V54H191.755ZM189.755 20H234.755V16H189.755V20ZM232.755 18V81H236.755V18H232.755ZM234.755 79H216.755V83H234.755V79ZM218.755 81V27H214.755V81H218.755ZM216.755 25H198.755V29H216.755V25ZM196.755 27V72H200.755V27H196.755ZM198.755 70H189.755V74H198.755V70ZM187.755 72V81H191.755V72H187.755ZM189.755 79H171.755V83H189.755V79ZM252.035 81H250.035V83H252.035V81ZM252.035 18V16H250.035V18H252.035ZM315.035 18H317.035V16H315.035V18ZM315.035 27V29H317.035V27H315.035ZM270.035 27V25H268.035V27H270.035ZM270.035 45H268.035V47H270.035V45ZM306.035 45H308.035V43H306.035V45ZM306.035 54V56H308.035V54H306.035ZM270.035 54V52H268.035V54H270.035ZM270.035 72H268.035V74H270.035V72ZM315.035 72H317.035V70H315.035V72ZM315.035 81V83H317.035V81H315.035ZM254.035 81V18H250.035V81H254.035ZM252.035 20H315.035V16H252.035V20ZM313.035 18V27H317.035V18H313.035ZM315.035 25H270.035V29H315.035V25ZM268.035 27V45H272.035V27H268.035ZM270.035 47H306.035V43H270.035V47ZM304.035 45V54H308.035V45H304.035ZM306.035 52H270.035V56H306.035V52ZM268.035 54V72H272.035V54H268.035ZM270.035 74H315.035V70H270.035V74ZM313.035 72V81H317.035V72H313.035ZM315.035 79H252.035V83H315.035V79ZM350.315 81H348.315V83H350.315V81ZM350.315 72H352.315V70H350.315V72ZM341.315 72H339.315V74H341.315V72ZM341.315 63H343.315V61H341.315V63ZM332.315 63H330.315V65H332.315V63ZM332.315 36V34H330.315V36H332.315ZM341.315 36V38H343.315V36H341.315ZM341.315 27V25H339.315V27H341.315ZM350.315 27V29H352.315V27H350.315ZM350.315 18V16H348.315V18H350.315ZM386.315 18H388.315V16H386.315V18ZM386.315 27H384.315V29H386.315V27ZM395.315 27H397.315V25H395.315V27ZM395.315 36V38H397.315V36H395.315ZM377.315 36H375.315V38H377.315V36ZM377.315 27H379.315V25H377.315V27ZM359.315 27V25H357.315V27H359.315ZM359.315 36V38H361.315V36H359.315ZM350.315 36V34H348.315V36H350.315ZM350.315 63H348.315V65H350.315V63ZM359.315 63H361.315V61H359.315V63ZM359.315 72H357.315V74H359.315V72ZM377.315 72V74H379.315V72H377.315ZM377.315 63V61H375.315V63H377.315ZM395.315 63H397.315V61H395.315V63ZM395.315 72V74H397.315V72H395.315ZM386.315 72V70H384.315V72H386.315ZM386.315 81V83H388.315V81H386.315ZM352.315 81V72H348.315V81H352.315ZM350.315 70H341.315V74H350.315V70ZM343.315 72V63H339.315V72H343.315ZM341.315 61H332.315V65H341.315V61ZM334.315 63V36H330.315V63H334.315ZM332.315 38H341.315V34H332.315V38ZM343.315 36V27H339.315V36H343.315ZM341.315 29H350.315V25H341.315V29ZM352.315 27V18H348.315V27H352.315ZM350.315 20H386.315V16H350.315V20ZM384.315 18V27H388.315V18H384.315ZM386.315 29H395.315V25H386.315V29ZM393.315 27V36H397.315V27H393.315ZM395.315 34H377.315V38H395.315V34ZM379.315 36V27H375.315V36H379.315ZM377.315 25H359.315V29H377.315V25ZM357.315 27V36H361.315V27H357.315ZM359.315 34H350.315V38H359.315V34ZM348.315 36V63H352.315V36H348.315ZM350.315 65H359.315V61H350.315V65ZM357.315 63V72H361.315V63H357.315ZM359.315 74H377.315V70H359.315V74ZM379.315 72V63H375.315V72H379.315ZM377.315 65H395.315V61H377.315V65ZM393.315 63V72H397.315V63H393.315ZM395.315 70H386.315V74H395.315V70ZM384.315 72V81H388.315V72H384.315ZM386.315 79H350.315V83H386.315V79ZM421.595 81H419.595V83H421.595V81ZM421.595 72H423.595V70H421.595V72ZM412.595 72H410.595V74H412.595V72ZM412.595 27V25H410.595V27H412.595ZM421.595 27V29H423.595V27H421.595ZM421.595 18V16H419.595V18H421.595ZM466.595 18H468.595V16H466.595V18ZM466.595 27H464.595V29H466.595V27ZM475.595 27H477.595V25H475.595V27ZM475.595 72V74H477.595V72H475.595ZM466.595 72V70H464.595V72H466.595ZM466.595 81V83H468.595V81H466.595ZM430.595 72H428.595V74H430.595V72ZM457.595 72V74H459.595V72H457.595ZM457.595 27H459.595V25H457.595V27ZM430.595 27V25H428.595V27H430.595ZM423.595 81V72H419.595V81H423.595ZM421.595 70H412.595V74H421.595V70ZM414.595 72V27H410.595V72H414.595ZM412.595 29H421.595V25H412.595V29ZM423.595 27V18H419.595V27H423.595ZM421.595 20H466.595V16H421.595V20ZM464.595 18V27H468.595V18H464.595ZM466.595 29H475.595V25H466.595V29ZM473.595 27V72H477.595V27H473.595ZM475.595 70H466.595V74H475.595V70ZM464.595 72V81H468.595V72H464.595ZM466.595 79H421.595V83H466.595V79ZM430.595 74H457.595V70H430.595V74ZM459.595 72V27H455.595V72H459.595ZM457.595 25H430.595V29H457.595V25ZM428.595 27V72H432.595V27H428.595ZM573.155 81H571.155V83H573.155V81ZM573.155 18V16H571.155V18H573.155ZM591.155 18H593.155V16H591.155V18ZM591.155 27H589.155V29H591.155V27ZM600.155 27H602.155V25H600.155V27ZM600.155 36H598.155V38H600.155V36ZM609.155 36V38H611.155V36H609.155ZM609.155 27V25H607.155V27H609.155ZM618.155 27V29H620.155V27H618.155ZM618.155 18V16H616.155V18H618.155ZM636.155 18H638.155V16H636.155V18ZM636.155 81V83H638.155V81H636.155ZM618.155 81H616.155V83H618.155V81ZM618.155 45H620.155V43H618.155V45ZM609.155 45V43H607.155V45H609.155ZM609.155 63V65H611.155V63H609.155ZM600.155 63H598.155V65H600.155V63ZM600.155 45H602.155V43H600.155V45ZM591.155 45V43H589.155V45H591.155ZM591.155 81V83H593.155V81H591.155ZM575.155 81V18H571.155V81H575.155ZM573.155 20H591.155V16H573.155V20ZM589.155 18V27H593.155V18H589.155ZM591.155 29H600.155V25H591.155V29ZM598.155 27V36H602.155V27H598.155ZM600.155 38H609.155V34H600.155V38ZM611.155 36V27H607.155V36H611.155ZM609.155 29H618.155V25H609.155V29ZM620.155 27V18H616.155V27H620.155ZM618.155 20H636.155V16H618.155V20ZM634.155 18V81H638.155V18H634.155ZM636.155 79H618.155V83H636.155V79ZM620.155 81V45H616.155V81H620.155ZM618.155 43H609.155V47H618.155V43ZM607.155 45V63H611.155V45H607.155ZM609.155 61H600.155V65H609.155V61ZM602.155 63V45H598.155V63H602.155ZM600.155 43H591.155V47H600.155V43ZM589.155 45V81H593.155V45H589.155ZM591.155 79H573.155V83H591.155V79ZM653.435 81H651.435V83H653.435V81ZM653.435 18V16H651.435V18H653.435ZM716.435 18H718.435V16H716.435V18ZM716.435 27V29H718.435V27H716.435ZM671.435 27V25H669.435V27H671.435ZM671.435 45H669.435V47H671.435V45ZM707.435 45H709.435V43H707.435V45ZM707.435 54V56H709.435V54H707.435ZM671.435 54V52H669.435V54H671.435ZM671.435 72H669.435V74H671.435V72ZM716.435 72H718.435V70H716.435V72ZM716.435 81V83H718.435V81H716.435ZM655.435 81V18H651.435V81H655.435ZM653.435 20H716.435V16H653.435V20ZM714.435 18V27H718.435V18H714.435ZM716.435 25H671.435V29H716.435V25ZM669.435 27V45H673.435V27H669.435ZM671.435 47H707.435V43H671.435V47ZM705.435 45V54H709.435V45H705.435ZM707.435 52H671.435V56H707.435V52ZM669.435 54V72H673.435V54H669.435ZM671.435 74H716.435V70H671.435V74ZM714.435 72V81H718.435V72H714.435ZM716.435 79H653.435V83H716.435V79ZM733.715 81H731.715V83H733.715V81ZM733.715 18V16H731.715V18H733.715ZM751.715 18H753.715V16H751.715V18ZM751.715 45H749.715V47H751.715V45ZM778.715 45V47H780.715V45H778.715ZM778.715 18V16H776.715V18H778.715ZM796.715 18H798.715V16H796.715V18ZM796.715 81V83H798.715V81H796.715ZM778.715 81H776.715V83H778.715V81ZM778.715 54H780.715V52H778.715V54ZM751.715 54V52H749.715V54H751.715ZM751.715 81V83H753.715V81H751.715ZM735.715 81V18H731.715V81H735.715ZM733.715 20H751.715V16H733.715V20ZM749.715 18V45H753.715V18H749.715ZM751.715 47H778.715V43H751.715V47ZM780.715 45V18H776.715V45H780.715ZM778.715 20H796.715V16H778.715V20ZM794.715 18V81H798.715V18H794.715ZM796.715 79H778.715V83H796.715V79ZM780.715 81V54H776.715V81H780.715ZM778.715 52H751.715V56H778.715V52ZM749.715 54V81H753.715V54H749.715ZM751.715 79H733.715V83H751.715V79ZM813.995 81H811.995V83H813.995V81ZM813.995 18V16H811.995V18H813.995ZM876.995 18H878.995V16H876.995V18ZM876.995 27V29H878.995V27H876.995ZM831.995 27V25H829.995V27H831.995ZM831.995 45H829.995V47H831.995V45ZM867.995 45H869.995V43H867.995V45ZM867.995 54V56H869.995V54H867.995ZM831.995 54V52H829.995V54H831.995ZM831.995 72H829.995V74H831.995V72ZM876.995 72H878.995V70H876.995V72ZM876.995 81V83H878.995V81H876.995ZM815.995 81V18H811.995V81H815.995ZM813.995 20H876.995V16H813.995V20ZM874.995 18V27H878.995V18H874.995ZM876.995 25H831.995V29H876.995V25ZM829.995 27V45H833.995V27H829.995ZM831.995 47H867.995V43H831.995V47ZM865.995 45V54H869.995V45H865.995ZM867.995 52H831.995V56H867.995V52ZM829.995 54V72H833.995V54H829.995ZM831.995 74H876.995V70H831.995V74ZM874.995 72V81H878.995V72H874.995ZM876.995 79H813.995V83H876.995V79ZM894.275 90H892.275V92H894.275V90ZM894.275 72V70H892.275V72H894.275ZM903.275 72V74H905.275V72H903.275ZM903.275 54V52H901.275V54H903.275ZM912.275 54V56H914.275V54H912.275ZM912.275 18V16H910.275V18H912.275ZM957.275 18H959.275V16H957.275V18ZM957.275 72H955.275V74H957.275V72ZM966.275 72H968.275V70H966.275V72ZM966.275 90V92H968.275V90H966.275ZM948.275 90H946.275V92H948.275V90ZM948.275 81H950.275V79H948.275V81ZM912.275 81V79H910.275V81H912.275ZM912.275 90V92H914.275V90H912.275ZM921.275 72H919.275V74H921.275V72ZM939.275 72V74H941.275V72H939.275ZM939.275 27H941.275V25H939.275V27ZM921.275 27V25H919.275V27H921.275ZM896.275 90V72H892.275V90H896.275ZM894.275 74H903.275V70H894.275V74ZM905.275 72V54H901.275V72H905.275ZM903.275 56H912.275V52H903.275V56ZM914.275 54V18H910.275V54H914.275ZM912.275 20H957.275V16H912.275V20ZM955.275 18V72H959.275V18H955.275ZM957.275 74H966.275V70H957.275V74ZM964.275 72V90H968.275V72H964.275ZM966.275 88H948.275V92H966.275V88ZM950.275 90V81H946.275V90H950.275ZM948.275 79H912.275V83H948.275V79ZM910.275 81V90H914.275V81H910.275ZM912.275 88H894.275V92H912.275V88ZM921.275 74H939.275V70H921.275V74ZM941.275 72V27H937.275V72H941.275ZM939.275 25H921.275V29H939.275V25ZM919.275 27V72H923.275V27H919.275ZM992.555 18H994.555V16H992.555V18ZM992.555 45V47H994.555V45H992.555ZM983.555 45H981.555V47H983.555V45ZM983.555 36H985.555V34H983.555V36ZM974.555 36H972.555V38H974.555V36ZM974.555 18V16H972.555V18H974.555ZM1010.55 45H1008.55V47H1010.55V45ZM1019.55 45H1021.55V43H1019.55V45ZM1019.55 54V56H1021.55V54H1019.55ZM1010.55 54V52H1008.55V54H1010.55ZM1010.55 81V83H1012.55V81H1010.55ZM1001.55 81H999.555V83H1001.55V81ZM1001.55 54H1003.55V52H1001.55V54ZM992.555 54H990.555V56H992.555V54ZM992.555 45V43H990.555V45H992.555ZM1001.55 45V47H1003.55V45H1001.55ZM1001.55 18V16H999.555V18H1001.55ZM1010.55 18H1012.55V16H1010.55V18ZM1037.55 18H1039.55V16H1037.55V18ZM1037.55 36V38H1039.55V36H1037.55ZM1028.55 36V34H1026.55V36H1028.55ZM1028.55 45V47H1030.55V45H1028.55ZM1019.55 45H1017.55V47H1019.55V45ZM1019.55 18V16H1017.55V18H1019.55ZM983.555 54V52H981.555V54H983.555ZM992.555 54H994.555V52H992.555V54ZM992.555 81V83H994.555V81H992.555ZM974.555 81H972.555V83H974.555V81ZM974.555 63V61H972.555V63H974.555ZM983.555 63V65H985.555V63H983.555ZM1019.55 81H1017.55V83H1019.55V81ZM1019.55 54V52H1017.55V54H1019.55ZM1028.55 54H1030.55V52H1028.55V54ZM1028.55 63H1026.55V65H1028.55V63ZM1037.55 63H1039.55V61H1037.55V63ZM1037.55 81V83H1039.55V81H1037.55ZM990.555 18V45H994.555V18H990.555ZM992.555 43H983.555V47H992.555V43ZM985.555 45V36H981.555V45H985.555ZM983.555 34H974.555V38H983.555V34ZM976.555 36V18H972.555V36H976.555ZM974.555 20H992.555V16H974.555V20ZM1010.55 47H1019.55V43H1010.55V47ZM1017.55 45V54H1021.55V45H1017.55ZM1019.55 52H1010.55V56H1019.55V52ZM1008.55 54V81H1012.55V54H1008.55ZM1010.55 79H1001.55V83H1010.55V79ZM1003.55 81V54H999.555V81H1003.55ZM1001.55 52H992.555V56H1001.55V52ZM994.555 54V45H990.555V54H994.555ZM992.555 47H1001.55V43H992.555V47ZM1003.55 45V18H999.555V45H1003.55ZM1001.55 20H1010.55V16H1001.55V20ZM1008.55 18V45H1012.55V18H1008.55ZM1035.55 18V36H1039.55V18H1035.55ZM1037.55 34H1028.55V38H1037.55V34ZM1026.55 36V45H1030.55V36H1026.55ZM1028.55 43H1019.55V47H1028.55V43ZM1021.55 45V18H1017.55V45H1021.55ZM1019.55 20H1037.55V16H1019.55V20ZM983.555 56H992.555V52H983.555V56ZM990.555 54V81H994.555V54H990.555ZM992.555 79H974.555V83H992.555V79ZM976.555 81V63H972.555V81H976.555ZM974.555 65H983.555V61H974.555V65ZM985.555 63V54H981.555V63H985.555ZM1021.55 81V54H1017.55V81H1021.55ZM1019.55 56H1028.55V52H1019.55V56ZM1026.55 54V63H1030.55V54H1026.55ZM1028.55 65H1037.55V61H1028.55V65ZM1035.55 63V81H1039.55V63H1035.55ZM1037.55 79H1019.55V83H1037.55V79ZM1054.83 81H1052.83V83H1054.83V81ZM1054.83 18V16H1052.83V18H1054.83ZM1072.83 18H1074.83V16H1072.83V18ZM1072.83 27H1070.83V29H1072.83V27ZM1081.83 27H1083.83V25H1081.83V27ZM1081.83 36H1079.83V38H1081.83V36ZM1090.83 36V38H1092.83V36H1090.83ZM1090.83 27V25H1088.83V27H1090.83ZM1099.83 27V29H1101.83V27H1099.83ZM1099.83 18V16H1097.83V18H1099.83ZM1117.83 18H1119.83V16H1117.83V18ZM1117.83 81V83H1119.83V81H1117.83ZM1099.83 81H1097.83V83H1099.83V81ZM1099.83 45H1101.83V43H1099.83V45ZM1090.83 45V43H1088.83V45H1090.83ZM1090.83 63V65H1092.83V63H1090.83ZM1081.83 63H1079.83V65H1081.83V63ZM1081.83 45H1083.83V43H1081.83V45ZM1072.83 45V43H1070.83V45H1072.83ZM1072.83 81V83H1074.83V81H1072.83ZM1056.83 81V18H1052.83V81H1056.83ZM1054.83 20H1072.83V16H1054.83V20ZM1070.83 18V27H1074.83V18H1070.83ZM1072.83 29H1081.83V25H1072.83V29ZM1079.83 27V36H1083.83V27H1079.83ZM1081.83 38H1090.83V34H1081.83V38ZM1092.83 36V27H1088.83V36H1092.83ZM1090.83 29H1099.83V25H1090.83V29ZM1101.83 27V18H1097.83V27H1101.83ZM1099.83 20H1117.83V16H1099.83V20ZM1115.83 18V81H1119.83V18H1115.83ZM1117.83 79H1099.83V83H1117.83V79ZM1101.83 81V45H1097.83V81H1101.83ZM1099.83 43H1090.83V47H1099.83V43ZM1088.83 45V63H1092.83V45H1088.83ZM1090.83 61H1081.83V65H1090.83V61ZM1083.83 63V45H1079.83V63H1083.83ZM1081.83 43H1072.83V47H1081.83V43ZM1070.83 45V81H1074.83V45H1070.83ZM1072.83 79H1054.83V83H1072.83V79ZM1135.11 81H1133.11V83H1135.11V81ZM1135.11 18V16H1133.11V18H1135.11ZM1198.11 18H1200.11V16H1198.11V18ZM1198.11 27V29H1200.11V27H1198.11ZM1153.11 27V25H1151.11V27H1153.11ZM1153.11 45H1151.11V47H1153.11V45ZM1189.11 45H1191.11V43H1189.11V45ZM1189.11 54V56H1191.11V54H1189.11ZM1153.11 54V52H1151.11V54H1153.11ZM1153.11 72H1151.11V74H1153.11V72ZM1198.11 72H1200.11V70H1198.11V72ZM1198.11 81V83H1200.11V81H1198.11ZM1137.11 81V18H1133.11V81H1137.11ZM1135.11 20H1198.11V16H1135.11V20ZM1196.11 18V27H1200.11V18H1196.11ZM1198.11 25H1153.11V29H1198.11V25ZM1151.11 27V45H1155.11V27H1151.11ZM1153.11 47H1189.11V43H1153.11V47ZM1187.11 45V54H1191.11V45H1187.11ZM1189.11 52H1153.11V56H1189.11V52ZM1151.11 54V72H1155.11V54H1151.11ZM1153.11 74H1198.11V70H1153.11V74ZM1196.11 72V81H1200.11V72H1196.11ZM1198.11 79H1135.11V83H1198.11V79ZM1215.39 81H1213.39V83H1215.39V81ZM1215.39 18V16H1213.39V18H1215.39ZM1233.39 18H1235.39V16H1233.39V18ZM1233.39 45H1231.39V47H1233.39V45ZM1260.39 45V47H1262.39V45H1260.39ZM1260.39 18V16H1258.39V18H1260.39ZM1278.39 18H1280.39V16H1278.39V18ZM1278.39 81V83H1280.39V81H1278.39ZM1260.39 81H1258.39V83H1260.39V81ZM1260.39 54H1262.39V52H1260.39V54ZM1233.39 54V52H1231.39V54H1233.39ZM1233.39 81V83H1235.39V81H1233.39ZM1217.39 81V18H1213.39V81H1217.39ZM1215.39 20H1233.39V16H1215.39V20ZM1231.39 18V45H1235.39V18H1231.39ZM1233.39 47H1260.39V43H1233.39V47ZM1262.39 45V18H1258.39V45H1262.39ZM1260.39 20H1278.39V16H1260.39V20ZM1276.39 18V81H1280.39V18H1276.39ZM1278.39 79H1260.39V83H1278.39V79ZM1262.39 81V54H1258.39V81H1262.39ZM1260.39 52H1233.39V56H1260.39V52ZM1231.39 54V81H1235.39V54H1231.39ZM1233.39 79H1215.39V83H1233.39V79ZM1322.67 81H1320.67V83H1322.67V81ZM1322.67 27H1324.67V25H1322.67V27ZM1304.67 27H1302.67V29H1304.67V27ZM1304.67 18V16H1302.67V18H1304.67ZM1358.67 18H1360.67V16H1358.67V18ZM1358.67 27V29H1360.67V27H1358.67ZM1340.67 27V25H1338.67V27H1340.67ZM1340.67 81V83H1342.67V81H1340.67ZM1324.67 81V27H1320.67V81H1324.67ZM1322.67 25H1304.67V29H1322.67V25ZM1306.67 27V18H1302.67V27H1306.67ZM1304.67 20H1358.67V16H1304.67V20ZM1356.67 18V27H1360.67V18H1356.67ZM1358.67 25H1340.67V29H1358.67V25ZM1338.67 27V81H1342.67V27H1338.67ZM1340.67 79H1322.67V83H1340.67V79ZM1375.95 81H1373.95V83H1375.95V81ZM1375.95 36V34H1373.95V36H1375.95ZM1384.95 36V38H1386.95V36H1384.95ZM1384.95 27V25H1382.95V27H1384.95ZM1393.95 27V29H1395.95V27H1393.95ZM1393.95 18V16H1391.95V18H1393.95ZM1420.95 18H1422.95V16H1420.95V18ZM1420.95 27H1418.95V29H1420.95V27ZM1429.95 27H1431.95V25H1429.95V27ZM1429.95 36H1427.95V38H1429.95V36ZM1438.95 36H1440.95V34H1438.95V36ZM1438.95 81V83H1440.95V81H1438.95ZM1420.95 81H1418.95V83H1420.95V81ZM1420.95 63H1422.95V61H1420.95V63ZM1393.95 63V61H1391.95V63H1393.95ZM1393.95 81V83H1395.95V81H1393.95ZM1393.95 54H1391.95V56H1393.95V54ZM1420.95 54V56H1422.95V54H1420.95ZM1420.95 36H1422.95V34H1420.95V36ZM1411.95 36H1409.95V38H1411.95V36ZM1411.95 27H1413.95V25H1411.95V27ZM1402.95 27V25H1400.95V27H1402.95ZM1402.95 36V38H1404.95V36H1402.95ZM1393.95 36V34H1391.95V36H1393.95ZM1377.95 81V36H1373.95V81H1377.95ZM1375.95 38H1384.95V34H1375.95V38ZM1386.95 36V27H1382.95V36H1386.95ZM1384.95 29H1393.95V25H1384.95V29ZM1395.95 27V18H1391.95V27H1395.95ZM1393.95 20H1420.95V16H1393.95V20ZM1418.95 18V27H1422.95V18H1418.95ZM1420.95 29H1429.95V25H1420.95V29ZM1427.95 27V36H1431.95V27H1427.95ZM1429.95 38H1438.95V34H1429.95V38ZM1436.95 36V81H1440.95V36H1436.95ZM1438.95 79H1420.95V83H1438.95V79ZM1422.95 81V63H1418.95V81H1422.95ZM1420.95 61H1393.95V65H1420.95V61ZM1391.95 63V81H1395.95V63H1391.95ZM1393.95 79H1375.95V83H1393.95V79ZM1393.95 56H1420.95V52H1393.95V56ZM1422.95 54V36H1418.95V54H1422.95ZM1420.95 34H1411.95V38H1420.95V34ZM1413.95 36V27H1409.95V36H1413.95ZM1411.95 25H1402.95V29H1411.95V25ZM1400.95 27V36H1404.95V27H1400.95ZM1402.95 34H1393.95V38H1402.95V34ZM1391.95 36V54H1395.95V36H1391.95Z" fill="#9EFF00" mask="url(#path-1-outside-1_62_131)"/>
<path d="M27 36H36V45H45V54H54V72H63V81H45V72H36V54H18V81H0V18H18V45H27V36ZM63 18V27H54V36H36V27H45V18H63ZM89.28 81V72H80.28V27H89.28V18H134.28V27H143.28V72H134.28V81H89.28ZM98.28 72H125.28V27H98.28V72ZM160.56 81V63H169.56V54H178.56V18H223.56V81H205.56V27H187.56V72H178.56V81H160.56ZM240.84 81V18H303.84V27H258.84V45H294.84V54H258.84V72H303.84V81H240.84ZM339.12 81V72H330.12V63H321.12V36H330.12V27H339.12V18H375.12V27H384.12V36H366.12V27H348.12V36H339.12V63H348.12V72H366.12V63H384.12V72H375.12V81H339.12ZM410.4 81V72H401.4V27H410.4V18H455.4V27H464.4V72H455.4V81H410.4ZM419.4 72H446.4V27H419.4V72ZM561.96 81V18H579.96V27H588.96V36H597.96V27H606.96V18H624.96V81H606.96V45H597.96V63H588.96V45H579.96V81H561.96ZM642.24 81V18H705.24V27H660.24V45H696.24V54H660.24V72H705.24V81H642.24ZM722.52 81V18H740.52V45H767.52V18H785.52V81H767.52V54H740.52V81H722.52ZM802.8 81V18H865.8V27H820.8V45H856.8V54H820.8V72H865.8V81H802.8ZM883.08 90V72H892.08V54H901.08V18H946.08V72H955.08V90H937.08V81H901.08V90H883.08ZM910.08 72H928.08V27H910.08V72ZM981.36 18V45H972.36V36H963.36V18H981.36ZM999.36 45H1008.36V54H999.36V81H990.36V54H981.36V45H990.36V18H999.36V45ZM1026.36 18V36H1017.36V45H1008.36V18H1026.36ZM972.36 54H981.36V81H963.36V63H972.36V54ZM1008.36 81V54H1017.36V63H1026.36V81H1008.36ZM1043.64 81V18H1061.64V27H1070.64V36H1079.64V27H1088.64V18H1106.64V81H1088.64V45H1079.64V63H1070.64V45H1061.64V81H1043.64ZM1123.92 81V18H1186.92V27H1141.92V45H1177.92V54H1141.92V72H1186.92V81H1123.92ZM1204.2 81V18H1222.2V45H1249.2V18H1267.2V81H1249.2V54H1222.2V81H1204.2ZM1311.48 81V27H1293.48V18H1347.48V27H1329.48V81H1311.48ZM1364.76 81V36H1373.76V27H1382.76V18H1409.76V27H1418.76V36H1427.76V81H1409.76V63H1382.76V81H1364.76ZM1382.76 54H1409.76V36H1400.76V27H1391.76V36H1382.76V54Z" fill="#9EFF00"/>
</svg>
