<svg width="1365" height="847" viewBox="0 0 1365 847" fill="none" xmlns="http://www.w3.org/2000/svg">
<g filter="url(#filter0_f_22_431)">
<path d="M1359.76 5.23792H522.591V841.762H1359.76V5.23792Z" stroke="#04E09E" stroke-miterlimit="10"/>
<path d="M522.591 5.23792H5.23962V522.191H522.591V5.23792Z" stroke="#04E09E" stroke-miterlimit="10"/>
<path d="M326.401 522.191H5.23962V841.762H326.401V522.191Z" stroke="#04E09E" stroke-miterlimit="10"/>
<path d="M522.591 645.275H326.401V841.315H522.591V645.275Z" stroke="#04E09E" stroke-miterlimit="10"/>
<path d="M522.591 522.191H400.756V645.275H522.591V522.191Z" stroke="#04E09E" stroke-miterlimit="10"/>
<path d="M400.756 522.191H326.401V596.489H400.756V522.191Z" stroke="#04E09E" stroke-miterlimit="10"/>
<path d="M522.591 5.23792C984.848 5.23792 1359.76 379.861 1359.76 841.762" stroke="#04E09E" stroke-miterlimit="10"/>
<path d="M5.23962 522.191C5.23962 236.636 236.816 5.23792 522.591 5.23792" stroke="#04E09E" stroke-miterlimit="10"/>
<path d="M326.401 841.762C149.023 841.762 5.23962 698.537 5.23962 522.191" stroke="#04E09E" stroke-miterlimit="10"/>
<path d="M522.591 645.275C522.591 753.589 434.798 841.315 326.401 841.315" stroke="#04E09E" stroke-miterlimit="10"/>
<path d="M400.756 522.191C467.945 522.191 522.591 577.243 522.591 645.275" stroke="#04E09E" stroke-miterlimit="10"/>
<path d="M326.401 596.489C326.401 555.312 359.547 522.191 400.756 522.191" stroke="#04E09E" stroke-miterlimit="10"/>
<path d="M375.224 645.275C348.349 645.275 326.401 623.344 326.401 596.489" stroke="#04E09E" stroke-miterlimit="10"/>
<path d="M400.756 619.763C400.756 634.086 389.11 645.275 375.224 645.275" stroke="#04E09E" stroke-miterlimit="10"/>
<path d="M375.224 596.489H326.401V645.275H375.224V596.489Z" stroke="#04E09E" stroke-miterlimit="10"/>
<path d="M400.756 619.763H375.224V645.275H400.756V619.763Z" stroke="#04E09E" stroke-miterlimit="10"/>
</g>
<defs>
<filter id="filter0_f_22_431" x="-1" y="-1" width="1367" height="849" filterUnits="userSpaceOnUse" color-interpolation-filters="sRGB">
<feFlood flood-opacity="0" result="BackgroundImageFix"/>
<feBlend mode="normal" in="SourceGraphic" in2="BackgroundImageFix" result="shape"/>
<feGaussianBlur stdDeviation="2" result="effect1_foregroundBlur_22_431"/>
</filter>
</defs>
</svg>
