<svg width="1921" height="1084" viewBox="0 0 1921 1084" fill="none" xmlns="http://www.w3.org/2000/svg">
<g clip-path="url(#clip0_22_431)" filter="url(#filter0_f_22_431)">
<path d="M1915.76 -54.7674H1078.59V779.767H1915.76V-54.7674Z" stroke="#04E09E" stroke-miterlimit="10"/>
<path d="M1078.59 -54.7674H561.24V460.956H1078.59V-54.7674Z" stroke="#04E09E" stroke-miterlimit="10"/>
<path d="M882.401 460.956H561.24V779.767H882.401V460.956Z" stroke="#04E09E" stroke-miterlimit="10"/>
<path d="M1078.59 583.748H882.401V779.321H1078.59V583.748Z" stroke="#04E09E" stroke-miterlimit="10"/>
<path d="M1078.59 460.956H956.756V583.748H1078.59V460.956Z" stroke="#04E09E" stroke-miterlimit="10"/>
<path d="M956.756 460.956H882.401V535.078H956.756V460.956Z" stroke="#04E09E" stroke-miterlimit="10"/>
<path d="M1078.59 -54.7674C1540.85 -54.7674 1915.76 318.965 1915.76 779.767" stroke="#04E09E" stroke-miterlimit="10"/>
<path d="M561.24 460.956C561.24 176.08 792.816 -54.7674 1078.59 -54.7674" stroke="#04E09E" stroke-miterlimit="10"/>
<path d="M882.401 779.767C705.023 779.767 561.24 636.883 561.24 460.956" stroke="#04E09E" stroke-miterlimit="10"/>
<path d="M1078.59 583.748C1078.59 691.804 990.798 779.321 882.401 779.321" stroke="#04E09E" stroke-miterlimit="10"/>
<path d="M956.756 460.956C1023.94 460.956 1078.59 515.878 1078.59 583.748" stroke="#04E09E" stroke-miterlimit="10"/>
<path d="M882.401 535.078C882.401 493.998 915.547 460.956 956.756 460.956" stroke="#04E09E" stroke-miterlimit="10"/>
<path d="M931.224 583.748C904.349 583.748 882.401 561.869 882.401 535.078" stroke="#04E09E" stroke-miterlimit="10"/>
<path d="M956.756 558.297C956.756 572.585 945.11 583.748 931.224 583.748" stroke="#04E09E" stroke-miterlimit="10"/>
<path d="M931.224 535.078H882.401V583.748H931.224V535.078Z" stroke="#04E09E" stroke-miterlimit="10"/>
<path d="M956.756 558.297H931.224V583.748H956.756V558.297Z" stroke="#04E09E" stroke-miterlimit="10"/>
</g>
<defs>
<filter id="filter0_f_22_431" x="-4" y="0" width="1926" height="1088" filterUnits="userSpaceOnUse" color-interpolation-filters="sRGB">
<feFlood flood-opacity="0" result="BackgroundImageFix"/>
<feBlend mode="normal" in="SourceGraphic" in2="BackgroundImageFix" result="shape"/>
<feGaussianBlur stdDeviation="2" result="effect1_foregroundBlur_22_431"/>
</filter>
<clipPath id="clip0_22_431">
<rect width="1918" height="1080" fill="white" transform="translate(0 4)"/>
</clipPath>
</defs>
</svg>
