<svg width="689" height="688" viewBox="0 0 689 688" fill="none" xmlns="http://www.w3.org/2000/svg">
<path d="M344.822 0.710571V687.451" stroke="#9EFF00" stroke-miterlimit="10"/>
<path d="M0.730682 344.267H688.541" stroke="#9EFF00" stroke-miterlimit="10"/>
<path d="M284.802 5.92163L307.916 136.942" stroke="#9EFF00" stroke-miterlimit="10"/>
<path d="M227.019 21.5547L272.5 146.247" stroke="#9EFF00" stroke-miterlimit="10"/>
<path d="M172.59 46.8654L239.321 161.88" stroke="#9EFF00" stroke-miterlimit="10"/>
<path d="M123.754 81.1094L209.124 182.725" stroke="#9EFF00" stroke-miterlimit="10"/>
<path d="M81.2549 123.542L183.028 208.78" stroke="#9EFF00" stroke-miterlimit="10"/>
<path d="M46.9575 172.675L162.152 238.929" stroke="#9EFF00" stroke-miterlimit="10"/>
<path d="M21.6073 226.646L146.494 272.057" stroke="#9EFF00" stroke-miterlimit="10"/>
<path d="M5.94983 284.712L136.802 307.789" stroke="#9EFF00" stroke-miterlimit="10"/>
<path d="M5.94983 403.821L136.802 380.744" stroke="#9EFF00" stroke-miterlimit="10"/>
<path d="M21.6073 461.515L146.494 416.105" stroke="#9EFF00" stroke-miterlimit="10"/>
<path d="M46.9575 515.859L162.152 449.604" stroke="#9EFF00" stroke-miterlimit="10"/>
<path d="M81.2549 564.991L183.028 479.754" stroke="#9EFF00" stroke-miterlimit="10"/>
<path d="M123.754 607.424L209.124 505.437" stroke="#9EFF00" stroke-miterlimit="10"/>
<path d="M172.59 641.668L239.321 526.653" stroke="#9EFF00" stroke-miterlimit="10"/>
<path d="M227.019 666.979L272.5 542.286" stroke="#9EFF00" stroke-miterlimit="10"/>
<path d="M284.802 682.24L307.916 551.591" stroke="#9EFF00" stroke-miterlimit="10"/>
<path d="M404.47 682.24L381.357 551.591" stroke="#9EFF00" stroke-miterlimit="10"/>
<path d="M462.253 666.979L416.772 542.286" stroke="#9EFF00" stroke-miterlimit="10"/>
<path d="M516.682 641.668L449.951 526.653" stroke="#9EFF00" stroke-miterlimit="10"/>
<path d="M565.891 607.424L480.148 505.437" stroke="#9EFF00" stroke-miterlimit="10"/>
<path d="M608.017 564.991L506.244 479.754" stroke="#9EFF00" stroke-miterlimit="10"/>
<path d="M642.687 515.859L527.493 449.604" stroke="#9EFF00" stroke-miterlimit="10"/>
<path d="M668.037 461.515L542.778 416.105" stroke="#9EFF00" stroke-miterlimit="10"/>
<path d="M683.322 403.821L552.47 380.744" stroke="#9EFF00" stroke-miterlimit="10"/>
<path d="M683.322 284.712L552.47 307.789" stroke="#9EFF00" stroke-miterlimit="10"/>
<path d="M668.037 226.646L542.778 272.057" stroke="#9EFF00" stroke-miterlimit="10"/>
<path d="M642.687 172.675L527.493 238.929" stroke="#9EFF00" stroke-miterlimit="10"/>
<path d="M608.017 123.542L506.244 208.78" stroke="#9EFF00" stroke-miterlimit="10"/>
<path d="M565.891 81.1094L480.148 182.725" stroke="#9EFF00" stroke-miterlimit="10"/>
<path d="M516.682 46.8654L449.951 161.88" stroke="#9EFF00" stroke-miterlimit="10"/>
<path d="M462.253 21.5547L416.772 146.247" stroke="#9EFF00" stroke-miterlimit="10"/>
<path d="M404.47 5.92163L381.357 136.942" stroke="#9EFF00" stroke-miterlimit="10"/>
<path d="M314.626 2.19946L321.336 78.8761" stroke="#9EFF00" stroke-miterlimit="10"/>
<path d="M255.724 12.6215L275.482 86.6927" stroke="#9EFF00" stroke-miterlimit="10"/>
<path d="M199.432 33.0934L231.865 102.698" stroke="#9EFF00" stroke-miterlimit="10"/>
<path d="M147.24 62.8708L191.603 126.148" stroke="#9EFF00" stroke-miterlimit="10"/>
<path d="M101.386 101.209L155.814 155.925" stroke="#9EFF00" stroke-miterlimit="10"/>
<path d="M62.9878 147.364L125.991 191.286" stroke="#9EFF00" stroke-miterlimit="10"/>
<path d="M32.7912 199.102L102.877 231.485" stroke="#9EFF00" stroke-miterlimit="10"/>
<path d="M12.2874 255.307L86.8468 275.407" stroke="#9EFF00" stroke-miterlimit="10"/>
<path d="M1.84906 314.117L79.0181 320.817" stroke="#9EFF00" stroke-miterlimit="10"/>
<path d="M1.84906 374.044L79.0181 367.344" stroke="#9EFF00" stroke-miterlimit="10"/>
<path d="M12.2874 433.226L86.8468 413.127" stroke="#9EFF00" stroke-miterlimit="10"/>
<path d="M32.7912 489.431L102.877 456.676" stroke="#9EFF00" stroke-miterlimit="10"/>
<path d="M62.9878 541.169L125.991 496.876" stroke="#9EFF00" stroke-miterlimit="10"/>
<path d="M101.386 586.952L155.814 532.608" stroke="#9EFF00" stroke-miterlimit="10"/>
<path d="M147.24 625.663L191.603 562.386" stroke="#9EFF00" stroke-miterlimit="10"/>
<path d="M199.432 655.44L231.865 585.835" stroke="#9EFF00" stroke-miterlimit="10"/>
<path d="M255.724 675.912L275.482 601.469" stroke="#9EFF00" stroke-miterlimit="10"/>
<path d="M314.626 686.334L321.336 609.657" stroke="#9EFF00" stroke-miterlimit="10"/>
<path d="M374.646 686.334L367.936 609.657" stroke="#9EFF00" stroke-miterlimit="10"/>
<path d="M433.548 675.912L413.79 601.469" stroke="#9EFF00" stroke-miterlimit="10"/>
<path d="M490.213 655.44L457.407 585.835" stroke="#9EFF00" stroke-miterlimit="10"/>
<path d="M542.032 625.663L497.669 562.386" stroke="#9EFF00" stroke-miterlimit="10"/>
<path d="M587.886 586.952L533.458 532.608" stroke="#9EFF00" stroke-miterlimit="10"/>
<path d="M626.284 541.169L563.282 496.876" stroke="#9EFF00" stroke-miterlimit="10"/>
<path d="M656.481 489.431L586.395 456.676" stroke="#9EFF00" stroke-miterlimit="10"/>
<path d="M676.985 433.226L602.425 413.127" stroke="#9EFF00" stroke-miterlimit="10"/>
<path d="M687.423 374.044L610.627 367.344" stroke="#9EFF00" stroke-miterlimit="10"/>
<path d="M687.423 314.117L610.627 320.817" stroke="#9EFF00" stroke-miterlimit="10"/>
<path d="M676.985 255.307L602.425 275.407" stroke="#9EFF00" stroke-miterlimit="10"/>
<path d="M656.481 199.102L586.395 231.485" stroke="#9EFF00" stroke-miterlimit="10"/>
<path d="M626.284 147.364L563.282 191.286" stroke="#9EFF00" stroke-miterlimit="10"/>
<path d="M587.886 101.209L533.458 155.925" stroke="#9EFF00" stroke-miterlimit="10"/>
<path d="M542.032 62.8708L497.669 126.148" stroke="#9EFF00" stroke-miterlimit="10"/>
<path d="M490.213 33.0934L457.407 102.698" stroke="#9EFF00" stroke-miterlimit="10"/>
<path d="M433.548 12.6215L413.79 86.6927" stroke="#9EFF00" stroke-miterlimit="10"/>
<path d="M374.646 2.19946L367.936 78.8761" stroke="#9EFF00" stroke-miterlimit="10"/>
<path d="M344.822 391.91C371.176 391.91 392.54 370.58 392.54 344.267C392.54 317.954 371.176 296.623 344.822 296.623C318.468 296.623 297.104 317.954 297.104 344.267C297.104 370.58 318.468 391.91 344.822 391.91Z" stroke="#9EFF00" stroke-miterlimit="10"/>
</svg>
